<?xml version="1.0" encoding="UTF-8"?>
<!DOCTYPE svg PUBLIC "-//W3C//DTD SVG 1.1//EN" "http://www.w3.org/Graphics/SVG/1.1/DTD/svg11.dtd">
<!-- Creator: CorelDRAW X8 -->
<svg xmlns="http://www.w3.org/2000/svg" xml:space="preserve" width="1.27083in" height="1.37499in" version="1.1" style="shape-rendering:geometricPrecision; text-rendering:geometricPrecision; image-rendering:optimizeQuality; fill-rule:evenodd; clip-rule:evenodd"
viewBox="0 0 1271 1375"
 xmlns:xlink="http://www.w3.org/1999/xlink">
 <defs>
  <style type="text/css">
   <![CDATA[
    .fil1 {fill:#FEFEFE}
    .fil0 {fill:#FEC86C}
   ]]>
  </style>
 </defs>
 <g id="Layer_x0020_1">
  <metadata id="CorelCorpID_0Corel-Layer"/>
  <g id="_1797930936256">
   <path class="fil0" d="M461 693c1,-1 139,-73 203,-100l29 -13c36,-15 73,-29 111,-43l2 -1 -1 -2c-6,-9 -10,-20 -12,-30l0 -2 -2 0c-30,11 -54,20 -76,29l50 -115 36 33 2 0 1 -2c2,-2 3,-5 5,-7 5,-6 11,-12 17,-17l2 -1 -47 -43 54 -123 90 88 -25 68 2 1c11,4 20,10 29,18l2 2 22 -60 72 69c-4,0 -7,0 -11,0 -19,2 -40,5 -66,11l-3 1 1 2c5,10 8,21 8,32l0 2 2 0c30,-7 53,-11 70,-11 14,0 23,3 25,8 3,6 0,25 -79,74l-5 4 67 -1c10,-7 17,-13 23,-19 28,-26 38,-50 28,-72 -4,-10 -11,-18 -21,-23l-17 -437 -4 0 -106 291 -117 -114 -71 162 -281 -259 -11 383 -164 -61 0 164 -283 -126 -2 3 302 316c-4,10 -3,21 1,31 9,20 29,30 60,30 4,0 8,0 11,0 27,-2 45,-5 70,-12l1 0 0 -38 -2 0c-35,9 -62,13 -80,13 -15,0 -24,-3 -26,-8 -5,-11 23,-42 114,-95zm153 -119c-43,19 -83,39 -121,59l3 -102 118 43zm-156 -57l-3 133 -122 -54 0 -126 125 47zm-117 213c-3,3 -5,5 -8,8l0 -100 85 37c-1,1 -2,2 -3,2 -22,14 -51,33 -74,53zm324 -178l-168 -62 8 -313 230 212 -70 163zm360 -165l-56 -54 49 -133 7 187zm-730 234l0 78 -130 -136 130 58z"/>
   <path class="fil1" d="M1188 1299c-10,14 -10,34 0,48 8,10 19,15 31,15 12,0 24,-5 31,-15 11,-14 11,-34 0,-48 -7,-9 -19,-15 -31,-15 -12,0 -23,6 -31,15zm-289 -828c9,12 9,27 0,39 -12,16 -38,16 -50,0 -9,-12 -9,-27 0,-39 6,-8 15,-12 25,-12 10,0 19,4 25,12zm-65 50c10,13 24,20 40,20 16,0 30,-7 40,-20l0 0c14,-18 14,-43 0,-61 -10,-13 -24,-20 -40,-20 -16,0 -30,7 -40,20 -14,18 -14,43 0,61zm-256 226l-56 0 0 -53 -66 33 0 231 66 0 0 -146 224 0 0 146 65 0 0 -199c0,-7 -5,-12 -12,-12l-53 0 39 -73c3,-5 8,-8 13,-8l111 0 0 292 65 0 0 -291 63 0c22,0 42,6 59,20 16,13 28,30 33,51l59 220 72 0c-10,-39 -20,-77 -30,-115 -12,-44 -24,-89 -36,-134 -5,-16 -11,-31 -20,-44 -9,-13 -19,-25 -32,-34 -12,-10 -26,-17 -41,-22 -13,-5 -26,-7 -41,-8l-10 -1 -223 0 -20 0 -39 0c-20,0 -36,13 -41,32 -5,17 -12,33 -21,47 -10,14 -21,26 -34,36 -13,10 -28,18 -44,23 -15,6 -32,9 -50,9zm126 323l-36 -65 -212 -1 0 154c0,28 6,54 16,79 11,25 25,47 44,65 18,19 40,33 64,44 25,11 51,16 79,16l153 0 0 -99 -63 -112 -99 0 0 66 96 0 0 79 -88 0c-19,0 -37,-3 -53,-10 -17,-7 -31,-17 -43,-30 -12,-12 -22,-27 -29,-44 -7,-16 -11,-34 -11,-53l0 -89 182 0zm408 -64l-380 0 37 63 87 0 0 291 150 0c28,0 54,-5 79,-16 24,-10 46,-25 64,-43 19,-18 33,-40 44,-65 10,-24 15,-51 15,-79l0 -54 -62 0 0 56c0,19 -3,37 -11,54 -7,17 -17,32 -29,44 -13,13 -28,23 -44,30 -17,7 -35,11 -54,11l-90 0 0 -229 194 0 0 -63z"/>
  </g>
 </g>
</svg>
